<svg version="1.2" xmlns="http://www.w3.org/2000/svg" viewBox="0 0 500 500" width="500" height="500">
	<title>New Project</title>
	<style>
		.s0 { fill: #fce8e3 } 
		.s1 { fill: #e2988f } 
		.s2 { fill: #c46966 } 
		.s3 { fill: #4c224b } 
		.s4 { fill: #f4ba5d } 
		.s5 { fill: #ffffff } 
	</style>
	<g>
		<path class="s0" d="m250.3 492c-126.8 0-229.2-102.4-229.2-229.2 0-126.7 102.4-229.1 229.2-229.1 126.7 0 229.1 102.4 229.1 229.1 0 126.8-102.4 229.2-229.1 229.2z"/>
		<g>
			<path class="s1" d="m310.9 232.7v136.9h-121.3v-136.9z"/>
			<g>
				<path class="s1" d="m369 136.5c-6.7-16-20.4-8.1-20.4-8.1 7.9-72.7-29-120.7-98.3-120.7-69.4 0-106.3 48-98.4 120.7 0 0-13.7-7.9-20.4 8.1-6.7 16 5.5 53.5 13.1 65.4 7.6 12 20.9 21 20.9 21 0 0 0.9 13.4 4.4 22.7 3.5 9.3 43 52 54.6 58.6 15.3 9 37.8 9 51.5 0 11.6-6.6 51.1-49.3 54.6-58.6 3.5-9.4 4.4-22.7 4.4-22.7 0 0 13.4-9 20.9-21 7.6-11.9 19.8-49.4 13.1-65.4z"/>
				<g>
					<path class="s2" d="m250.9 312.4c-9.6 0-19.3-2.3-27.1-6.9-7.1-3.9-23.3-20.1-35.3-33.5l2.3-2.1c12.2 13.6 28 29.3 34.5 32.9 14.8 8.7 36.6 8.7 49.8 0.1 6.6-3.7 22.4-19.4 34.6-33l2.3 2.1c-12 13.4-28.2 29.6-35.3 33.5-7 4.6-16.3 6.9-25.8 6.9z"/>
					<path class="s2" d="m160.2 191.9l3-0.4 3.9 31.2-3.1 0.4z"/>
					<path class="s2" d="m333.6 222.7l3.5-31.2 3 0.4-3.4 31.1z"/>
					<g>
						<path class="s2" d="m140.4 172.5c-0.6-2.4-6.1-23.2 1.5-28.9 2.4-1.6 4.5-1.5 5.8-1.1 3.8 1.3 5.7 6 5.9 6.6l-2.9 1.1c-0.4-1.1-1.9-4.1-4-4.7q-1.4-0.5-3.1 0.6c-4.3 3.3-2.4 17.4-0.2 25.6z"/>
						<path class="s2" d="m360.1 172.5l-3-0.8c2.2-8.2 4.1-22.3-0.3-25.7q-1.6-1-3-0.5c-2.5 0.8-4 4.6-4 4.7l-2.9-1.2c0.2-0.5 2.1-5.2 5.9-6.5 1.3-0.4 3.4-0.5 5.7 1 7.7 5.8 2.2 26.6 1.6 29z"/>
					</g>
				</g>
				<g>
					<path class="s3" d="m161.7 166.6c20.6 0.1 5-66.3 21.1-82.3 8.2-8.2 20.2-6.9 30.5-4.2 11.9 3 24.3 7.1 36.9 7.5 13.4 0.3 26-4.6 38.8-7.7 10-2.4 20.8-3.5 28.7 4.4 16.1 16 0.5 82.4 21.1 82.3-1.4-15.3-1.4-32.2 9.8-38.2h0.1c7.8-72.7-29.1-120.7-98.4-120.7-69.4 0-106.3 48-98.4 120.7 9.1 5.9 11.2 22.2 9.8 38.2z"/>
				</g>
			</g>
			<path class="s4" d="m446.1 381.9c-64.7-28.9-135.2-39.1-135.2-39.1-32.4 33.7-92.7 34.2-121.3 0 0 0-70.5 10.2-135.2 39.1 40.2 66 112.9 110.1 195.9 110.1 82.9 0 155.6-44.1 195.8-110.1z"/>
			<path class="s5" d="m173.2 345.1l16.4-29.4 53.1 47.6-32.5 35.6z"/>
			<path class="s5" d="m327.2 345.1l-16.4-29.4-53 47.6 32.4 35.6z"/>
		</g>
	</g>
	<g id="Layer 1">
	</g>
</svg>